<svg width="32" height="32" viewBox="0 0 32 32" fill="none" xmlns="http://www.w3.org/2000/svg">
<path d="M4 0.375H28C30.002 0.375 31.625 1.99797 31.625 4V28C31.625 30.002 30.002 31.625 28 31.625H4C1.99797 31.625 0.375 30.002 0.375 28V4C0.375 1.99797 1.99797 0.375 4 0.375Z" fill="#232326" stroke="#FAFAFF" stroke-width="0.75"/>
<path d="M15.5189 0.955257L15.5189 31.5294" stroke="#FAFAFF" stroke-width="0.75"/>
<path d="M0.470589 15.3926H31.5294" stroke="#FAFAFF" stroke-width="0.75"/>
<path d="M9.44186 8.56105H21.8139C22.7114 8.56105 23.4389 9.28858 23.4389 10.186V22.5581C23.4389 23.4556 22.7114 24.1831 21.8139 24.1831H9.44186C8.5444 24.1831 7.81686 23.4556 7.81686 22.5581V10.186C7.81686 9.28858 8.5444 8.56105 9.44186 8.56105Z" fill="#030303" stroke="#FAFAFF" stroke-width="0.75"/>
</svg>
